<svg width="89" height="90" viewBox="0 0 89 90" fill="none" xmlns="http://www.w3.org/2000/svg">
<path d="M33.3364 28.0697V24.6851V5.37739C33.3364 3.17841 35.1177 1.39001 37.3222 1.39001H82.7847C84.9874 1.39001 86.7705 3.17799 86.7707 5.37724V5.37739V46.5932C86.7707 48.7935 84.9866 50.579 82.7849 50.579H69.7514L76.9169 83.114L33.3364 28.0697ZM33.3364 28.0697L35.5363 25.4976L37.5144 23.1849L37.5149 23.1843C38.2614 22.3104 39.2498 21.7641 40.3212 21.5335L41.3082 21.3211V20.3115V9.36372M33.3364 28.0697L41.3082 9.36372M41.3082 9.36372H78.7986V42.6067H41.3083V37.8734V34.4884L39.1083 37.061L37.8772 38.5007L41.3082 9.36372ZM50.5318 50.579L43.3652 83.116L43.3651 83.1163C42.8807 85.3179 44.2723 87.4947 46.4744 87.9801L46.4752 87.9803C48.6582 88.4599 50.8529 87.0785 51.335 84.8721C51.3351 84.8718 51.3351 84.8714 51.3352 84.871L58.8877 50.5792H61.3948L68.9478 84.8734L68.9479 84.8736C69.3679 86.7785 71.0562 88.0764 72.9303 88.0748L50.5318 50.579ZM50.5318 50.579H37.3222C35.1186 50.579 33.3364 48.7931 33.3364 46.5932V41.5036V40.365L34.4701 40.259C35.7931 40.1354 37.0129 39.5087 37.8763 38.5017L50.5318 50.579ZM73.8113 87.9801L73.8109 87.9802C73.5129 88.0458 73.2168 88.0747 72.9318 88.0748L73.8113 87.9801ZM73.8113 87.9801C76.0125 87.4949 77.4052 85.3188 76.9174 83.116L73.8113 87.9801Z" stroke="#5C5C5C" stroke-width="2.5"/>
<path d="M61.0536 18.6225C60.8379 18.079 60.2266 17.8121 59.6835 18.0272L43.5651 23.7164C42.0858 22.5711 39.9515 22.7757 38.7179 24.2104L33.6033 30.1832L29.0682 26.2958C29.0981 26.6168 29.1661 26.9288 29.1661 27.2582V35.6973L31.6892 37.8592C33.1865 39.1416 35.4263 38.9434 36.6783 37.4751L42.7671 30.355L47.6778 27.4822L60.6011 19.9211C61.048 19.6635 61.246 19.113 61.0536 18.6225Z" fill="#5C5C5C"/>
<path d="M19.2106 20.1368H16.1732C13.8476 20.1368 11.8026 21.2672 10.5027 22.9901L1.17916 31.5741C-0.27359 32.8682 -0.405356 35.1097 0.902866 36.5712L8.50964 45.0617C9.8065 46.5138 12.0514 46.6422 13.504 45.3372C14.9604 44.0319 15.0834 41.7962 13.7784 40.3416L8.53515 34.4866L15.9825 27.8224L11.6451 33.7154L15.888 38.4525C18.2325 41.0724 18.0115 45.0979 15.3927 47.4442C13.6048 49.047 11.1649 49.4231 9.04963 48.6839C9.04963 48.6839 9.08249 65.0514 9.08249 82.5799C9.08249 84.9244 10.9828 86.8249 13.3275 86.8249C15.6697 86.8249 17.5725 84.9244 17.5725 82.5799C17.5725 65.0568 17.5725 75.0565 17.5725 57.2803H20.404C20.404 75.0435 20.404 65.0514 20.404 82.5799C20.404 83.8039 20.0627 84.9373 19.5186 85.9406C20.2309 86.4885 21.1172 86.8249 22.0833 86.8249C24.4292 86.8249 26.3295 84.9244 26.3295 82.5799C26.3295 65.0568 26.3349 72.4026 26.3349 27.259C26.3353 23.3254 23.1465 20.1368 19.2106 20.1368Z" fill="#5C5C5C"/>
<path d="M13.9102 17.5887C15.0453 18.1787 16.3196 18.5448 17.6885 18.5448C19.0608 18.5448 20.3351 18.1787 21.4735 17.5877C24.1305 16.2111 25.9619 13.4706 25.9619 10.2721C25.9619 5.7029 22.2578 2 17.6883 2C13.1195 2 9.41622 5.7029 9.41622 10.2721C9.41639 13.4724 11.2498 16.2139 13.9102 17.5887Z" fill="#5C5C5C"/>
</svg>
